<?xml version="1.0" encoding="UTF-8" standalone="no"?>
<!DOCTYPE svg PUBLIC "-//W3C//DTD SVG 1.1//EN" "http://www.w3.org/Graphics/SVG/1.1/DTD/svg11.dtd">
<svg width="100%" height="100%" viewBox="0 0 1540 488" version="1.1" xmlns="http://www.w3.org/2000/svg" xmlns:xlink="http://www.w3.org/1999/xlink" xml:space="preserve" xmlns:serif="http://www.serif.com/" style="fill-rule:evenodd;clip-rule:evenodd;stroke-linejoin:round;stroke-miterlimit:2;">
    <g transform="matrix(1,0,0,1,-3226.43,-2168.86)">
        <g transform="matrix(1,0,0,1,0.603516,0)">
            <g id="logo">
                <path d="M3281.4,2364.09C3299.77,2364.09 3310.02,2372.2 3310.02,2386.27C3310.02,2400.34 3299.77,2408.45 3281.4,2408.45L3272.58,2408.45L3272.58,2364.09L3281.4,2364.09ZM3318.85,2434.21C3344.85,2428.25 3357.96,2411.31 3357.96,2383.65C3357.96,2367.66 3352.72,2354.31 3342.46,2343.81C3332.2,2333.32 3317.66,2328.07 3298.58,2328.07L3225.83,2328.07L3225.83,2507.91L3272.58,2507.91L3272.58,2438.75L3317.18,2507.91L3375.38,2507.91L3318.85,2434.21Z" style="fill:white;fill-rule:nonzero;"/>
                <path d="M3384.09,2328.07L3384.09,2507.91L3486.41,2507.91L3486.41,2468.32L3430.84,2468.32L3430.84,2437.31L3483.31,2437.31L3483.31,2397.72L3430.84,2397.72L3430.84,2367.66L3486.41,2367.66L3486.41,2328.07L3384.09,2328.07Z" style="fill:white;fill-rule:nonzero;"/>
                <path d="M3573.89,2507.91L3610.14,2507.91L3754.93,2168.86L3693.03,2195.59L3592.49,2437.55L3549.08,2328.07L3498.28,2328.07L3573.89,2507.91Z" style="fill:rgb(255,177,15);fill-rule:nonzero;"/>
                <path d="M3694.49,2494.03C3707.11,2506.91 3721.64,2515.59 3739.26,2517.49C3732.84,2526.45 3725.43,2535.03 3717.01,2543.23C3681.75,2577.59 3639.7,2594.77 3590.42,2594.77C3542.95,2594.77 3501.35,2577.59 3466.54,2543.68C3457.22,2534.49 3449.14,2524.71 3442.28,2514.35L3508.44,2514.35C3532.15,2535.84 3559.75,2546.39 3590.87,2546.39C3626.59,2546.39 3656.43,2534.19 3681.3,2509.32C3686.18,2504.44 3690.58,2499.34 3694.49,2494.03ZM3712.69,2288.61C3714.45,2290.25 3716.19,2291.93 3717.92,2293.66C3726.19,2301.93 3733.49,2310.59 3739.82,2319.62C3722.28,2321.37 3707.8,2329.8 3695.21,2342.41C3694.08,2340.84 3692.91,2339.3 3691.69,2337.77L3712.69,2288.61ZM3641.25,2298.88C3626.28,2292.67 3609.94,2289.59 3592.23,2289.59C3559.26,2289.59 3530.74,2300.54 3506.69,2322.82L3442.08,2322.82C3443.22,2321.12 3444.4,2319.44 3445.62,2317.76C3451.83,2309.22 3458.95,2301.04 3466.99,2293.2C3502.26,2258.39 3544.3,2241.21 3593.13,2241.21C3617.04,2241.21 3639.28,2245.52 3659.87,2254.07L3641.25,2298.88Z" style="fill:rgb(217,217,217);fill-rule:nonzero;"/>
                <path d="M3719.68,2417.99C3719.68,2404.39 3724.69,2392.71 3734.71,2382.93C3744.72,2373.15 3756.65,2368.14 3770.25,2368.14C3784.08,2368.14 3796,2372.91 3806.02,2382.69C3816.04,2392.47 3821.05,2404.39 3821.05,2418.47C3821.05,2432.78 3816.04,2444.71 3806.02,2454.49C3796.24,2464.27 3784.32,2469.03 3770.49,2469.03C3756.17,2469.03 3744.01,2464.02 3734.23,2454.25C3724.45,2444.47 3719.68,2432.3 3719.68,2417.99ZM3670.78,2417.03C3670.78,2444.71 3680.09,2467.84 3698.93,2486.45C3717.77,2505.05 3741.38,2514.35 3769.53,2514.35C3798.87,2514.35 3822.72,2505.05 3841.56,2486.68C3860.4,2468.32 3869.94,2445.42 3869.94,2418.47C3869.94,2391.52 3860.4,2368.86 3841.56,2350.49C3822.72,2332.13 3799.11,2322.82 3770.25,2322.82C3741.86,2322.82 3718.01,2331.89 3699.17,2350.25C3680.33,2368.62 3670.78,2390.8 3670.78,2417.03Z" style="fill:white;fill-rule:nonzero;"/>
                <path d="M3888.79,2507.91L3991.59,2507.91L3991.59,2468.32L3935.54,2468.32L3935.54,2328.07L3888.79,2328.07L3888.79,2507.91Z" style="fill:white;fill-rule:nonzero;"/>
                <path d="M4001.6,2431.82C4001.6,2462.12 4006.14,2478.1 4019.49,2491.45C4033.57,2505.53 4053.36,2512.45 4078.88,2512.45C4096.53,2512.45 4112.04,2508.39 4125.63,2500.04C4139.23,2491.7 4148.53,2480.72 4153.54,2467.12C4156.64,2458.78 4158.31,2446.85 4158.31,2431.82L4158.31,2328.07L4111.8,2328.07L4111.8,2425.39C4111.8,2435.64 4111.32,2442.8 4110.61,2447.33C4109.89,2451.62 4107.98,2455.68 4105.36,2459.49C4099.87,2467.36 4091.29,2471.42 4079.6,2471.42C4064.57,2471.42 4052.17,2461.88 4049.55,2448.28C4048.83,2444.71 4048.36,2437.07 4048.36,2425.39L4048.36,2328.07L4001.6,2328.07L4001.6,2431.82Z" style="fill:white;fill-rule:nonzero;"/>
                <path d="M4291.88,2328.07L4168.33,2328.07L4168.33,2367.66L4206.73,2367.66L4206.73,2507.91L4253.48,2507.91L4253.48,2367.66L4291.88,2367.66L4291.88,2328.07Z" style="fill:white;fill-rule:nonzero;"/>
                <rect x="4301.9" y="2328.07" width="46.749" height="179.84" style="fill:white;"/>
                <path d="M4416.38,2417.99C4416.38,2404.39 4421.39,2392.71 4431.41,2382.93C4441.43,2373.15 4453.35,2368.14 4466.95,2368.14C4480.78,2368.14 4492.71,2372.91 4502.73,2382.69C4512.74,2392.47 4517.75,2404.39 4517.75,2418.47C4517.75,2432.78 4512.74,2444.71 4502.73,2454.49C4492.95,2464.27 4481.02,2469.03 4467.19,2469.03C4452.88,2469.03 4440.71,2464.02 4430.93,2454.25C4421.15,2444.47 4416.38,2432.3 4416.38,2417.99ZM4367.49,2417.03C4367.49,2444.71 4376.79,2467.84 4395.63,2486.45C4414.48,2505.05 4438.09,2514.35 4466.23,2514.35C4495.57,2514.35 4519.42,2505.05 4538.26,2486.68C4557.11,2468.32 4566.65,2445.42 4566.65,2418.47C4566.65,2391.52 4557.11,2368.86 4538.26,2350.49C4519.42,2332.13 4495.81,2322.82 4466.95,2322.82C4438.57,2322.82 4414.71,2331.89 4395.87,2350.25C4377.03,2368.62 4367.49,2390.8 4367.49,2417.03Z" style="fill:white;fill-rule:nonzero;"/>
                <path d="M4632.24,2397.96L4718.34,2507.91L4765.09,2507.91L4765.09,2328.07L4718.34,2328.07L4718.34,2438.27L4632.24,2328.07L4585.49,2328.07L4585.49,2507.91L4632.24,2507.91L4632.24,2397.96Z" style="fill:white;fill-rule:nonzero;"/>
                <path d="M4089.28,2604.66L4089.28,2611.82C4089.28,2625.1 4085.03,2635.84 4076.54,2644.07C4068.05,2652.3 4057.08,2656.41 4043.63,2656.41C4029.3,2656.41 4017.42,2651.75 4008,2642.41C3998.58,2633.08 3993.87,2621.69 3993.87,2608.24C3993.87,2594.71 3998.53,2583.25 4007.87,2573.88C4017.2,2564.5 4028.77,2559.81 4042.57,2559.81C4051.24,2559.81 4059.15,2561.78 4066.32,2565.72C4073.49,2569.65 4079.06,2574.89 4083.04,2581.44L4067.38,2590.46C4065.17,2586.66 4061.83,2583.56 4057.36,2581.17C4052.89,2578.78 4047.92,2577.59 4042.43,2577.59C4033.59,2577.59 4026.31,2580.49 4020.61,2586.28C4014.9,2592.07 4012.05,2599.4 4012.05,2608.24C4012.05,2617 4014.94,2624.23 4020.74,2629.94C4026.53,2635.64 4034.21,2638.5 4043.76,2638.5C4050.84,2638.5 4056.7,2636.93 4061.34,2633.79C4065.99,2630.65 4069.15,2626.34 4070.83,2620.85L4042.7,2620.85L4042.7,2604.66L4089.28,2604.66Z" style="fill:white;fill-rule:nonzero;"/>
                <path d="M4224.89,2654.55L4206.18,2622.31L4192.25,2622.31L4192.25,2654.55L4173.94,2654.55L4173.94,2561.66L4211.09,2561.66C4219.67,2561.66 4226.97,2564.68 4232.99,2570.69C4239,2576.7 4242.01,2583.96 4242.01,2592.45C4242.01,2598.2 4240.38,2603.53 4237.1,2608.44C4233.83,2613.35 4229.49,2617.05 4224.1,2619.52L4244.67,2654.55L4224.89,2654.55ZM4192.25,2578.78L4192.25,2606.25L4211.09,2606.25C4214.54,2606.25 4217.51,2604.9 4219.98,2602.21C4222.46,2599.51 4223.7,2596.26 4223.7,2592.45C4223.7,2588.65 4222.46,2585.41 4219.98,2582.77C4217.51,2580.11 4214.54,2578.78 4211.09,2578.78L4192.25,2578.78Z" style="fill:white;fill-rule:nonzero;"/>
                <path d="M4404.17,2642.48C4394.79,2651.77 4383.38,2656.41 4369.93,2656.41C4356.49,2656.41 4345.1,2651.75 4335.76,2642.41C4326.43,2633.08 4321.76,2621.64 4321.76,2608.11C4321.76,2594.57 4326.43,2583.14 4335.76,2573.81C4345.1,2564.48 4356.49,2559.81 4369.93,2559.81C4383.38,2559.81 4394.79,2564.48 4404.17,2573.81C4413.55,2583.14 4418.23,2594.57 4418.23,2608.11C4418.23,2621.64 4413.55,2633.1 4404.17,2642.48ZM4348.57,2630.01C4354.32,2635.67 4361.44,2638.5 4369.93,2638.5C4378.43,2638.5 4385.55,2635.64 4391.3,2629.94C4397.05,2624.23 4399.92,2616.96 4399.92,2608.11C4399.92,2599.27 4397.05,2591.97 4391.3,2586.22C4385.55,2580.47 4378.43,2577.59 4369.93,2577.59C4361.44,2577.59 4354.32,2580.47 4348.57,2586.22C4342.82,2591.97 4339.94,2599.27 4339.94,2608.11C4339.94,2616.96 4342.82,2624.26 4348.57,2630.01Z" style="fill:white;fill-rule:nonzero;"/>
                <path d="M4536.73,2656.41C4526.38,2656.41 4517.89,2653.49 4511.26,2647.66C4504.62,2641.82 4501.3,2633.99 4501.3,2624.17L4501.3,2561.66L4519.48,2561.66L4519.48,2622.71C4519.48,2627.57 4520.88,2631.42 4523.66,2634.25C4526.45,2637.09 4530.81,2638.5 4536.73,2638.5C4542.66,2638.5 4547.02,2637.09 4549.81,2634.25C4552.59,2631.42 4553.98,2627.57 4553.98,2622.71L4553.98,2561.66L4572.3,2561.66L4572.3,2624.17C4572.3,2633.99 4568.98,2641.82 4562.35,2647.66C4555.71,2653.49 4547.17,2656.41 4536.73,2656.41Z" style="fill:white;fill-rule:nonzero;"/>
                <path d="M4695.04,2561.66C4703.98,2561.66 4711.5,2564.68 4717.6,2570.69C4723.71,2576.7 4726.76,2584.09 4726.76,2592.85C4726.76,2601.61 4723.71,2609 4717.6,2615.01C4711.5,2621.03 4703.98,2624.03 4695.04,2624.03L4678.72,2624.03L4678.72,2654.55L4660.41,2654.55L4660.41,2561.66L4695.04,2561.66ZM4695.04,2606.91C4698.94,2606.91 4702.16,2605.57 4704.73,2602.87C4707.3,2600.17 4708.58,2596.83 4708.58,2592.85C4708.58,2588.78 4707.3,2585.41 4704.73,2582.77C4702.16,2580.11 4698.94,2578.78 4695.04,2578.78L4678.72,2578.78L4678.72,2606.91L4695.04,2606.91Z" style="fill:white;fill-rule:nonzero;"/>
            </g>
        </g>
    </g>
</svg>
